HIERARCHY
ROOT SpineBase
{
  OFFSET 0.000000 0.000000 0.000000
  CHANNELS 6 Xposition Yposition Zposition Zrotation Xrotation Yrotation
  JOINT SpineMid
  {
    OFFSET 0.000000 34.069391 0.000000
    CHANNELS 3 Zrotation Xrotation Yrotation
    JOINT SpineShoulder
    {
      OFFSET -0.085759 25.313258 -0.706525
      CHANNELS 3 Zrotation Xrotation Yrotation
      JOINT Neck
      {
        OFFSET 0.018986 8.338056 -0.514741
        CHANNELS 3 Zrotation Xrotation Yrotation
        JOINT Head
        {
          OFFSET 6.186940 10.580326 4.050121
          CHANNELS 3 Zrotation Xrotation Yrotation
          End Site
          {
            OFFSET 0 0 0
          }
        }
      }
      JOINT ShoulderLeft
      {
        OFFSET -3.926945 -4.926927 -15.591220
        CHANNELS 3 Zrotation Xrotation Yrotation
        JOINT ElbowLeft
        {
          OFFSET -2.939957 -25.691529 -7.685935
          CHANNELS 3 Zrotation Xrotation Yrotation
          JOINT WristLeft
          {
            OFFSET 6.136259 -23.214462 -3.777971
            CHANNELS 3 Zrotation Xrotation Yrotation
            JOINT HandLeft
            {
              OFFSET 1.253671 -8.068224 0.792517
              CHANNELS 3 Zrotation Xrotation Yrotation
              JOINT HandTipLeft
              {
                OFFSET 1.458553 -7.740628 1.623356
                CHANNELS 3 Zrotation Xrotation Yrotation
                End Site
                {
                  OFFSET 0 0 0
                }
              }
              JOINT ThumbLeft
              {
                OFFSET -2.135123 0.279975 -3.516985
                CHANNELS 3 Zrotation Xrotation Yrotation
                End Site
                {
                  OFFSET 0 0 0
                }
              }
            }
          }
        }
      }
      JOINT ShoulderRight
      {
        OFFSET 4.587066 -14.300293 14.301559
        CHANNELS 3 Zrotation Xrotation Yrotation
        JOINT ElbowRight
        {
          OFFSET 13.557998 -18.745017 -15.069967
          CHANNELS 3 Zrotation Xrotation Yrotation
          JOINT WristRight
          {
            OFFSET -2.737491 -21.757460 4.855952
            CHANNELS 3 Zrotation Xrotation Yrotation
            JOINT HandRight
            {
              OFFSET 0.021325 -7.755705 -0.716431
              CHANNELS 3 Zrotation Xrotation Yrotation
              JOINT HandTipRight
              {
                OFFSET -1.192527 -3.787778 0.427057
                CHANNELS 3 Zrotation Xrotation Yrotation
                End Site
                {
                  OFFSET 0 0 0
                }
              }
              JOINT ThumbRight
              {
                OFFSET 0.494659 2.304020 -4.160097
                CHANNELS 3 Zrotation Xrotation Yrotation
                End Site
                {
                  OFFSET 0 0 0
                }
              }
            }
          }
        }
      }
    }
  }
  JOINT HipLeft
  {
    OFFSET -0.870666 0.887706 -9.628797
    CHANNELS 3 Zrotation Xrotation Yrotation
    JOINT KneeLeft
    {
      OFFSET -2.409782 -33.768478 -0.803143
      CHANNELS 3 Zrotation Xrotation Yrotation
      JOINT AnkleLeft
      {
        OFFSET -6.100039 -38.047785 4.916807
        CHANNELS 3 Zrotation Xrotation Yrotation
        JOINT FootLeft
        {
          OFFSET 2.346176 -6.810004 1.297579
          CHANNELS 3 Zrotation Xrotation Yrotation
          End Site
          {
            OFFSET 0 0 0
          }
        }
      }
    }
  }
  JOINT HipRight
  {
    OFFSET 2.801132 0.166696 2.218711
    CHANNELS 3 Zrotation Xrotation Yrotation
    JOINT KneeRight
    {
      OFFSET -2.709440 -27.199495 -14.587768
      CHANNELS 3 Zrotation Xrotation Yrotation
      JOINT AnkleRight
      {
        OFFSET -11.480836 -32.182566 9.559384
        CHANNELS 3 Zrotation Xrotation Yrotation
        JOINT FootRight
        {
          OFFSET -0.659487 -10.050918 -9.716437
          CHANNELS 3 Zrotation Xrotation Yrotation
          End Site
          {
            OFFSET 0 0 0
          }
        }
      }
    }
  }
}
MOTION
Frames: 15
Frame Time: 0.033333
-92.957339 78.240318 345.462868 1.200762 -0.065361 -72.414957 -0.425128 -1.124896 72.411468 -0.861814 -0.223279 -0.054368 19.437238 2.519442 -9.744561 0.000000 0.000000 0.000000 5.224485 -1.551102 -1.009798 -4.479666 -4.245385 -0.376135 -13.567731 -12.189030 -3.411893 11.031623 18.621228 2.322435 0.000000 0.000000 0.000000 0.000000 0.000000 0.000000 0.861608 0.224071 0.051003 -11.151623 -30.256915 -1.513321 39.905057 81.436150 -30.272847 29.692632 24.505384 -18.793285 0.000000 0.000000 0.000000 0.000000 0.000000 0.000000 -3.559884 -4.771693 72.221477 1.021428 1.596475 -0.903264 32.881834 20.310417 10.051953 0.000000 0.000000 0.000000 51.230233 -10.890924 82.499299 6.874331 56.529659 -10.642762 -2.876037 24.719552 -2.057275 0.000000 0.000000 0.000000
-91.992175 77.965670 345.990178 1.940201 -0.584096 -72.714492 -1.134335 -1.679008 72.707761 -0.000000 0.000000 0.000000 19.286477 2.869916 -10.538525 0.000000 0.000000 0.000000 4.085845 -2.100311 -0.916295 -4.871501 -4.372624 -0.516983 -15.159529 -12.801827 -3.989191 12.676011 20.914473 2.561436 0.000000 0.000000 0.000000 0.000000 0.000000 0.000000 -0.000000 0.000000 0.000000 -11.148143 -30.252419 -1.511851 25.174345 71.577245 -15.639249 32.698827 29.709975 -21.273806 0.000000 0.000000 0.000000 0.000000 0.000000 0.000000 -5.601275 -6.479307 72.329671 2.427205 0.899555 -0.898182 31.963734 21.230946 10.339558 0.000000 0.000000 0.000000 52.356743 -10.465119 82.632248 5.547358 63.164686 -12.012329 -3.217381 13.227613 0.745242 0.000000 0.000000 0.000000
-92.334847 77.958742 345.827782 1.460456 -0.416243 -72.093534 -0.845173 -1.261726 72.089533 -0.000000 0.000000 0.000000 19.956296 3.425167 -11.325572 0.000000 0.000000 0.000000 3.725073 -2.196884 -0.799466 -5.018200 -4.501722 -0.633306 -16.076915 -13.306771 -4.431648 13.644918 22.605893 2.755138 0.000000 0.000000 0.000000 0.000000 0.000000 0.000000 -0.000000 0.000000 0.000000 -11.144276 -30.246717 -1.510239 24.281092 70.081096 -14.756000 32.975248 30.801744 -22.130236 0.000000 0.000000 0.000000 0.000000 0.000000 0.000000 -5.100672 -5.282682 71.769203 1.655661 1.168695 -0.932166 31.349064 21.861335 10.608769 0.000000 0.000000 0.000000 53.417842 -10.521376 81.759302 7.274838 71.976711 -17.337545 5.476533 -7.259020 -0.049532 0.000000 0.000000 0.000000
-93.589932 78.071480 345.257515 0.191460 0.159991 -70.132154 -0.498356 -0.973034 70.101991 0.893159 -0.297538 0.026238 20.780965 3.888489 -12.133289 0.000000 0.000000 0.000000 3.709876 -2.161573 -0.800315 -5.284333 -4.726147 -0.648876 -13.043031 -11.754440 -3.544675 11.814620 20.790440 2.670425 0.000000 0.000000 0.000000 0.000000 0.000000 0.000000 -0.000000 0.000000 0.000000 -11.142256 -30.239380 -1.509533 20.067203 59.150972 -10.673187 37.761463 40.570265 -31.197275 0.000000 0.000000 0.000000 0.000000 0.000000 0.000000 -2.804044 -2.092246 69.989710 -0.732546 2.210375 -0.999251 34.140215 25.607380 11.214889 0.000000 0.000000 0.000000 54.348586 -11.817542 80.244396 18.990066 79.803867 -32.060600 17.258685 -31.868647 5.127119 0.000000 0.000000 0.000000
-95.468431 78.414922 344.320411 -1.602727 1.035564 -66.160159 -0.538225 -0.963569 66.090041 1.320271 -1.067701 -0.013737 22.772603 4.140710 -12.589712 0.000000 0.000000 0.000000 5.342800 -2.052680 -0.804852 -5.583228 -5.051098 -0.592620 -9.453091 -9.622470 -2.463074 8.278138 17.090462 2.379497 0.000000 0.000000 0.000000 0.000000 0.000000 0.000000 1.382726 -0.067063 0.086326 -11.139933 -30.231592 -1.508701 21.129604 60.458619 -11.564182 36.361320 39.072817 -29.666676 0.000000 0.000000 0.000000 0.000000 0.000000 0.000000 1.154711 2.103235 66.094230 -4.334531 3.842746 -1.043119 31.157726 21.317489 11.103362 0.000000 0.000000 0.000000 53.276375 -16.117935 79.304151 65.931674 82.185311 -80.005856 51.923326 -59.658896 31.846748 0.000000 0.000000 0.000000
-97.787695 78.828429 343.368690 -3.754652 2.126800 -61.436244 -0.502824 -0.985562 61.351459 2.127942 -1.566958 -0.040083 24.355950 4.215882 -12.838498 0.000000 0.000000 0.000000 7.199933 -2.131499 -0.871262 -5.652993 -5.218421 -0.408500 -4.678381 -8.000684 -1.424087 4.711259 13.852775 2.000399 0.000000 0.000000 0.000000 0.000000 0.000000 0.000000 2.736805 -0.518750 0.182518 -11.136118 -30.223119 -1.507201 19.837135 53.509279 -10.254512 39.268101 44.174643 -35.234935 0.000000 0.000000 0.000000 0.000000 0.000000 0.000000 6.606947 6.258000 61.144601 -8.448459 5.717877 -0.975307 25.298321 12.955653 9.884376 0.000000 0.000000 0.000000 52.810418 -19.883482 76.313233 99.515265 80.302403 -114.273410 94.163948 -59.496786 56.953730 0.000000 0.000000 0.000000
-100.127882 79.483544 342.230526 -5.845757 3.460933 -56.654751 -0.664078 -0.875379 56.615101 2.957457 -1.669033 -0.035800 25.695706 3.613679 -12.760336 0.000000 0.000000 0.000000 9.443103 -2.907437 -0.973030 -5.802938 -5.371195 -0.058063 0.148209 -5.678367 -0.316413 0.557120 9.896717 1.484693 0.000000 0.000000 0.000000 0.000000 0.000000 0.000000 3.993512 -1.844315 0.314852 -11.131779 -30.216404 -1.505404 21.113442 59.175369 -11.486914 36.139738 39.537025 -30.069404 0.000000 0.000000 0.000000 0.000000 0.000000 0.000000 13.389837 8.798276 55.912356 -12.511777 8.246626 -0.765987 25.275297 9.465277 9.574717 0.000000 0.000000 0.000000 54.229642 -22.234864 71.369937 123.031951 78.973039 -140.136702 116.971152 -57.200065 81.779251 0.000000 0.000000 0.000000
-102.050068 80.154321 341.082842 -7.511224 4.774961 -52.597968 -0.908884 -0.742784 52.651291 3.358635 -1.659361 -0.039419 27.408907 3.070602 -12.903996 0.000000 0.000000 0.000000 11.891120 -3.932191 -0.996040 -5.957864 -5.602059 0.275421 4.045817 -4.245535 0.463530 -2.569099 6.895287 1.042409 0.000000 0.000000 0.000000 0.000000 0.000000 0.000000 4.746896 -5.748100 -0.841338 -8.568767 -27.495259 0.870489 27.982520 63.257565 -17.834784 31.126131 34.825611 -26.691833 0.000000 0.000000 0.000000 0.000000 0.000000 0.000000 19.175754 9.280741 51.578813 -14.871290 10.388633 -0.496108 30.899636 11.398217 10.672891 0.000000 0.000000 0.000000 57.466057 -23.665506 66.383934 141.194129 78.454627 -161.314424 120.625157 -55.362876 85.379919 0.000000 0.000000 0.000000
-103.319494 80.396487 340.856325 -8.117480 5.961405 -49.267883 -1.055961 -0.653985 49.411980 3.225388 -1.505752 -0.049647 28.458852 2.290337 -12.771151 0.000000 0.000000 0.000000 14.538345 -4.432577 -1.245537 -6.057729 -5.960868 0.864243 6.222249 -2.523547 1.233225 -4.441186 4.480185 0.732826 0.000000 0.000000 0.000000 0.000000 0.000000 0.000000 5.664216 -6.610978 -0.365226 -9.174772 -28.194811 0.298077 26.401166 62.414081 -16.331533 32.102490 35.804395 -27.288756 0.000000 0.000000 0.000000 0.000000 0.000000 0.000000 23.026190 8.892115 48.275131 -17.301038 11.838530 -0.332543 33.391974 10.289934 11.277177 0.000000 0.000000 0.000000 60.009639 -24.603815 61.902964 154.133469 79.749531 -176.765011 104.878323 -57.225723 71.291721 0.000000 0.000000 0.000000
-103.738423 80.219756 341.412937 -7.669788 6.809634 -48.206410 -1.188071 -0.581290 48.394744 2.654717 -1.124149 -0.067569 28.823739 1.295919 -12.451012 0.000000 0.000000 0.000000 16.971691 -4.613554 -1.635800 -6.068890 -6.269991 1.618168 6.330318 -1.115512 1.877632 -5.369571 1.376768 0.325476 0.000000 0.000000 0.000000 0.000000 0.000000 0.000000 6.466934 -5.010744 1.400729 -12.438798 -31.523518 -2.772465 18.478529 56.977063 -9.089837 38.687091 41.544537 -31.756905 0.000000 0.000000 0.000000 0.000000 0.000000 0.000000 24.461280 8.515624 47.388116 -19.300669 12.534533 -0.278438 34.977459 10.653388 11.973257 0.000000 0.000000 0.000000 64.089747 -22.725131 57.204265 -174.131541 80.693900 147.258472 90.890698 -51.657874 44.026641 0.000000 0.000000 0.000000
-103.407586 79.693144 342.594234 -6.487149 7.295638 -48.955575 -1.109610 -0.525658 49.134998 1.685078 -0.460080 -0.105780 29.117627 1.735870 -13.483753 0.000000 0.000000 0.000000 18.795762 -4.654083 -2.039099 -5.714652 -6.167595 2.377027 5.275846 -0.863058 2.386447 -7.040293 0.337928 0.026293 0.000000 0.000000 0.000000 0.000000 0.000000 0.000000 7.756193 -0.804547 3.885989 -19.515015 -37.899009 -8.650454 3.621997 36.310397 1.645655 70.696379 56.089328 -59.036626 0.000000 0.000000 0.000000 0.000000 0.000000 0.000000 23.988721 8.499086 48.278621 -20.674680 12.614263 -0.354913 34.957287 9.273459 12.307463 0.000000 0.000000 0.000000 66.242813 -21.197887 56.220689 -163.227960 81.617800 136.055388 72.283603 -47.507279 25.078773 0.000000 0.000000 0.000000
-101.939997 78.633361 344.793007 -4.093299 7.305039 -52.282210 -0.874649 -0.043959 52.427930 0.209664 0.163253 -0.169939 28.416910 1.433473 -14.054668 0.000000 0.000000 0.000000 19.162457 -4.463720 -2.585983 -5.357464 -6.810642 2.929156 4.578784 2.361497 2.984979 -5.941831 -3.973582 -0.218243 0.000000 0.000000 0.000000 0.000000 0.000000 0.000000 7.830201 4.382109 6.333528 -27.847723 -42.460020 -16.198377 -2.526576 16.948241 3.866800 109.094885 56.975548 -94.506685 0.000000 0.000000 0.000000 0.000000 0.000000 0.000000 20.114232 8.496858 51.762701 -20.789472 11.652292 -0.766106 40.978595 12.662100 13.952349 0.000000 0.000000 0.000000 67.366353 -17.852103 57.097545 -135.265450 81.399697 107.461548 51.162010 -38.844442 9.944800 0.000000 0.000000 0.000000
-100.981426 77.682465 346.629187 -1.997014 7.720342 -47.735966 -0.858736 0.234469 47.821161 -0.005822 -0.009803 -0.130921 28.539592 3.110409 -16.923741 0.000000 0.000000 0.000000 18.619744 -3.864175 -3.286997 -5.240588 -8.201482 3.350808 2.249293 1.874838 3.220669 -4.896119 -3.853437 -0.083462 0.000000 0.000000 0.000000 0.000000 0.000000 0.000000 5.342365 9.859330 9.801126 -37.303748 -45.005658 -26.841753 -3.650086 6.376016 3.677487 127.034232 51.928959 -110.895664 0.000000 0.000000 0.000000 0.000000 0.000000 0.000000 18.262809 6.390787 47.587873 -21.820086 10.785740 -1.193786 47.553208 17.986360 15.559938 0.000000 0.000000 0.000000 65.071217 -22.835738 56.646028 -99.909175 80.775148 73.566366 40.401226 -26.825534 0.200954 0.000000 0.000000 0.000000
-100.168213 77.007772 348.615081 0.003590 8.338409 -15.468153 -0.687350 0.750471 15.457192 -0.154753 -0.049090 -0.090714 29.806942 2.534407 -18.426095 0.000000 0.000000 0.000000 18.099910 -4.556722 -3.562367 -5.987647 -8.365097 3.656876 1.368204 4.472527 3.425879 -3.194514 -7.981863 -0.165396 0.000000 0.000000 0.000000 0.000000 0.000000 0.000000 1.129065 14.300489 14.358976 -45.301071 -44.087595 -38.020077 -1.868395 2.151114 3.233668 131.497180 49.287869 -114.515948 0.000000 0.000000 0.000000 0.000000 0.000000 0.000000 16.593364 -2.995801 16.590643 -22.930929 9.418141 -1.783347 53.763164 24.310309 16.715118 0.000000 0.000000 0.000000 46.097304 -51.091754 35.270669 -63.066287 76.806388 39.585480 36.138417 -15.531860 -5.878572 0.000000 0.000000 0.000000
-99.601227 76.625761 350.488636 1.978218 8.973373 75.737462 0.775404 0.550292 -75.859851 -0.178239 -0.295089 -0.023100 31.817970 2.436228 -20.887479 0.000000 0.000000 0.000000 17.670806 -5.231922 -3.960985 -7.562324 -8.598226 3.997920 -1.664259 4.668862 3.400330 -0.064758 -7.873322 0.184759 0.000000 0.000000 0.000000 0.000000 0.000000 0.000000 -3.375567 17.568862 18.100646 -49.584158 -41.924130 -45.547960 1.183078 3.907334 3.190174 126.245358 50.887834 -108.898432 0.000000 0.000000 0.000000 0.000000 0.000000 0.000000 -2.013063 -14.385389 -75.608214 -24.193809 7.944162 -2.493922 55.817525 23.358533 17.875397 0.000000 0.000000 0.000000 -57.770051 -20.526891 -86.617416 -41.839810 69.763118 20.968875 35.578362 -4.851652 -8.546081 0.000000 0.000000 0.000000
